# xmcd
#
# Track frame offsets:
#	150
#	16524
#	33771
#	47667
#	56487
#	74725
#	88668
#	101996
#	115040
#	126176
#	139009
#	154418
#
# Disc length: 2262 seconds
#
# Revision: 0
# Processed by: cddbd v1.5.2PL0 Copyright (c) Steve Scherf et al.
# Submitted via: EasyCDDAExtractor 10.0.2.1
#
DISCID=9f08d40c
DTITLE=Various Artist - TIMA Country Gospel
DYEAR=2000
DGENRE=Gospel
TTITLE0=Joe Paul Nichols - Route 3 Gloryland
TTITLE1=Shirley Hayes and Mary Faye Jackson - Mary Don't You Worry
TTITLE2=Marvin Morrow - Knee Bent  Heaven Bound
TTITLE3=Jimmy Wiiiams - Moving To Higher Ground
TTITLE4=Deauna Hill - There Is A Place
TTITLE5=Billy Jack Davis - Something Wrong In Paradise
TTITLE6=Don Early - On Higher Ground
TTITLE7=Joe Price - Loving Me
TTITLE8=Lawton Williams - The Last Trumpet
TTITLE9=Andy Mayes - Everywhere I Go
TTITLE10=Angel Fish - Every Day Is A New Day
TTITLE11=Carolyn Vaughn - Jesus Will Out Shine Them All
EXTD=
EXTT0=
EXTT1=
EXTT2=
EXTT3=
EXTT4=
EXTT5=
EXTT6=
EXTT7=
EXTT8=
EXTT9=
EXTT10=
EXTT11=
PLAYORDER=
